<svg width="266" height="80" viewBox="0 0 266 80" fill="none" xmlns="http://www.w3.org/2000/svg">
<path d="M5.63403 -81L5.63402 78.9072M27.8007 -81L27.8007 78.9072M49.9674 -81L49.9674 78.9072M266 -80.9074L0 -80.9075M72.134 -81L72.134 78.9072M266 -63.14L0 -63.14M94.3007 -81L94.3007 78.9072M266 -45.3725L0 -45.3725M116.467 -81V78.9072M266 -27.605L0 -27.605M138.634 -81V78.9072M266 -9.83748L0 -9.83749M160.801 -81V78.9072M266 7.93002L0 7.93001M182.967 -81V78.9072M266 25.6975L0 25.6975M238.384 -81V78.9072M266 70.1163L0 70.1162M205.134 -81V78.9072M266 43.465L0 43.465M260.551 -81V78.9072M16.7174 -81L16.7174 78.9072M38.884 -81L38.884 78.9072M61.0507 -81L61.0507 78.9072M266 -72.0237L0 -72.0237M83.2174 -81L83.2174 78.9072M266 -54.2562L0 -54.2562M105.384 -81V78.9072M266 -36.4887L0 -36.4887M127.551 -81V78.9072M266 -18.7212L0 -18.7212M149.717 -81V78.9072M266 -0.953726L0 -0.953737M171.884 -81V78.9072M266 16.8138L0 16.8138M227.301 -81V78.9072M266 61.2325L0 61.2325M194.051 -81V78.9072M266 34.5813L0 34.5813M249.467 -81V78.9072M266 79L0 79M216.217 -81V78.9072M266 52.3488L0 52.3487" stroke="url(#paint0_radial_card)" stroke-opacity="0.25"/>
<defs>
<radialGradient id="paint0_radial_card" cx="0" cy="0" r="1" gradientUnits="userSpaceOnUse" gradientTransform="translate(133 -1.04638) rotate(90) scale(76.8073 76.6597)">
<stop stop-color="#454545"/>
<stop offset="1" stop-color="#454545" stop-opacity="0"/>
</radialGradient>
</defs>
</svg>
