<svg width="89" height="79" viewBox="0 0 89 79" fill="none" xmlns="http://www.w3.org/2000/svg">
<path d="M27.7079 27.9999L26.9353 28.7711C26.8233 28.883 26.8233 29.0643 26.9353 29.1761L27.7079 29.9473C27.82 30.0592 28.0017 30.0592 28.1137 29.9473L28.8864 29.1761C28.9984 29.0643 28.9984 28.883 28.8864 28.7711L28.1137 27.9999C28.0017 27.8881 27.82 27.8881 27.7079 27.9999Z" fill="#A5ACB0"/>
<path d="M29.0419 26.6786L28.2693 27.4498C28.1572 27.5617 28.1572 27.743 28.2693 27.8549L29.0419 28.626C29.154 28.7379 29.3357 28.7379 29.4477 28.626L30.2203 27.8549C30.3324 27.743 30.3324 27.5617 30.2203 27.4498L29.4477 26.6786C29.3357 26.5668 29.154 26.5668 29.0419 26.6786Z" fill="#A5ACB0"/>
<path d="M30.3622 25.3554L29.5896 26.1266C29.4776 26.2384 29.4776 26.4198 29.5896 26.5316L30.3622 27.3028C30.4743 27.4146 30.656 27.4146 30.768 27.3028L31.5406 26.5316C31.6527 26.4198 31.6527 26.2384 31.5406 26.1266L30.768 25.3554C30.656 25.2436 30.4743 25.2436 30.3622 25.3554Z" fill="#A5ACB0"/>
<path d="M31.6904 24.039L30.9177 24.8102C30.8057 24.922 30.8057 25.1034 30.9177 25.2152L31.6904 25.9864C31.8024 26.0982 31.9841 26.0982 32.0961 25.9864L32.8688 25.2152C32.9808 25.1034 32.9808 24.922 32.8688 24.8102L32.0961 24.039C31.9841 23.9272 31.8024 23.9272 31.6904 24.039Z" fill="#A5ACB0"/>
<path d="M33.0165 22.705L32.2439 23.4762C32.1319 23.588 32.1319 23.7694 32.2439 23.8812L33.0165 24.6524C33.1286 24.7643 33.3103 24.7643 33.4223 24.6524L34.1949 23.8812C34.307 23.7694 34.307 23.588 34.1949 23.4762L33.4223 22.705C33.3103 22.5932 33.1286 22.5932 33.0165 22.705Z" fill="#A5ACB0"/>
<path d="M36.997 18.7411L36.2244 19.5123C36.1123 19.6242 36.1123 19.8055 36.2244 19.9174L36.997 20.6885C37.1091 20.8004 37.2907 20.8004 37.4028 20.6885L38.1754 19.9174C38.2875 19.8055 38.2875 19.6242 38.1754 19.5123L37.4028 18.7411C37.2907 18.6293 37.1091 18.6293 36.997 18.7411Z" fill="#A5ACB0"/>
<path d="M40.9814 14.749L40.2087 15.5201C40.0967 15.632 40.0967 15.8133 40.2087 15.9252L40.9814 16.6964C41.0934 16.8082 41.2751 16.8082 41.3872 16.6964L42.1598 15.9252C42.2718 15.8133 42.2718 15.632 42.1598 15.5201L41.3872 14.749C41.2751 14.6371 41.0934 14.6371 40.9814 14.749Z" fill="#A5ACB0"/>
<path d="M43.6376 12.1191L42.865 12.8903C42.7529 13.0021 42.7529 13.1834 42.865 13.2953L43.6376 14.0665C43.7497 14.1783 43.9314 14.1783 44.0434 14.0665L44.816 13.2953C44.9281 13.1834 44.9281 13.0021 44.816 12.8903L44.0434 12.1191C43.9314 12.0072 43.7497 12.0072 43.6376 12.1191Z" fill="#A5ACB0"/>
<path d="M44.9599 10.7929L44.1873 11.5641C44.0752 11.6759 44.0752 11.8573 44.1873 11.9691L44.9599 12.7403C45.0719 12.8521 45.2536 12.8521 45.3657 12.7403L46.1383 11.9691C46.2504 11.8573 46.2504 11.6759 46.1383 11.5641L45.3657 10.7929C45.2536 10.6811 45.0719 10.6811 44.9599 10.7929Z" fill="#A5ACB0"/>
<path d="M46.2841 9.46868L45.5115 10.2399C45.3994 10.3517 45.3994 10.533 45.5115 10.6449L46.2841 11.4161C46.3962 11.5279 46.5778 11.5279 46.6899 11.4161L47.4625 10.6449C47.5746 10.533 47.5746 10.3517 47.4625 10.2399L46.6899 9.46868C46.5778 9.35684 46.3962 9.35684 46.2841 9.46868Z" fill="#A5ACB0"/>
<path d="M27.7079 25.3554L26.9353 26.1266C26.8233 26.2384 26.8233 26.4198 26.9353 26.5316L27.7079 27.3028C27.82 27.4146 28.0017 27.4146 28.1137 27.3028L28.8864 26.5316C28.9984 26.4198 28.9984 26.2384 28.8864 26.1266L28.1137 25.3554C28.0017 25.2436 27.82 25.2436 27.7079 25.3554Z" fill="#A5ACB0"/>
<path d="M29.0322 24.039L28.2595 24.8102C28.1475 24.922 28.1475 25.1034 28.2595 25.2152L29.0322 25.9864C29.1442 26.0982 29.3259 26.0982 29.4379 25.9864L30.2106 25.2152C30.3226 25.1034 30.3226 24.922 30.2106 24.8102L29.4379 24.039C29.3259 23.9272 29.1442 23.9272 29.0322 24.039Z" fill="#A5ACB0"/>
<path d="M31.6904 21.3808L30.9177 22.152C30.8057 22.2638 30.8057 22.4452 30.9177 22.557L31.6904 23.3282C31.8024 23.44 31.9841 23.44 32.0961 23.3282L32.8688 22.557C32.9808 22.4452 32.9808 22.2638 32.8688 22.152L32.0961 21.3808C31.9841 21.2689 31.8024 21.2689 31.6904 21.3808Z" fill="#A5ACB0"/>
<path d="M33.0165 20.0468L32.2439 20.818C32.1319 20.9298 32.1319 21.1112 32.2439 21.223L33.0165 21.9942C33.1286 22.1061 33.3103 22.1061 33.4223 21.9942L34.1949 21.223C34.307 21.1112 34.307 20.9298 34.1949 20.818L33.4223 20.0468C33.3103 19.935 33.1286 19.935 33.0165 20.0468Z" fill="#A5ACB0"/>
<path d="M36.997 16.0937L36.2244 16.8649C36.1123 16.9767 36.1123 17.158 36.2244 17.2699L36.997 18.0411C37.1091 18.1529 37.2907 18.1529 37.4028 18.0411L38.1754 17.2699C38.2875 17.158 38.2875 16.9767 38.1754 16.8649L37.4028 16.0937C37.2907 15.9818 37.1091 15.9818 36.997 16.0937Z" fill="#A5ACB0"/>
<path d="M39.6513 13.4433L38.8787 14.2145C38.7666 14.3263 38.7666 14.5077 38.8787 14.6195L39.6513 15.3907C39.7634 15.5025 39.945 15.5025 40.0571 15.3907L40.8297 14.6195C40.9418 14.5077 40.9418 14.3263 40.8297 14.2145L40.0571 13.4433C39.945 13.3314 39.7634 13.3314 39.6513 13.4433Z" fill="#A5ACB0"/>
<path d="M40.9814 12.1191L40.2087 12.8903C40.0967 13.0021 40.0967 13.1834 40.2087 13.2953L40.9814 14.0665C41.0934 14.1783 41.2751 14.1783 41.3872 14.0665L42.1598 13.2953C42.2718 13.1834 42.2718 13.0021 42.1598 12.8903L41.3872 12.1191C41.2751 12.0072 41.0934 12.0072 40.9814 12.1191Z" fill="#A5ACB0"/>
<path d="M42.3095 10.7929L41.5369 11.5641C41.4248 11.6759 41.4248 11.8573 41.5369 11.9691L42.3095 12.7403C42.4216 12.8521 42.6032 12.8521 42.7153 12.7403L43.4879 11.9691C43.6 11.8573 43.6 11.6759 43.4879 11.5641L42.7153 10.7929C42.6032 10.6811 42.4216 10.6811 42.3095 10.7929Z" fill="#A5ACB0"/>
<path d="M25.0556 25.3554L24.283 26.1266C24.1709 26.2384 24.1709 26.4198 24.283 26.5316L25.0556 27.3028C25.1677 27.4146 25.3493 27.4146 25.4614 27.3028L26.234 26.5316C26.3461 26.4198 26.3461 26.2384 26.234 26.1266L25.4614 25.3554C25.3493 25.2436 25.1677 25.2436 25.0556 25.3554Z" fill="#A5ACB0"/>
<path d="M26.3876 24.039L25.615 24.8102C25.5029 24.922 25.5029 25.1034 25.615 25.2152L26.3876 25.9864C26.4997 26.0982 26.6814 26.0982 26.7934 25.9864L27.566 25.2152C27.6781 25.1034 27.6781 24.922 27.566 24.8102L26.7934 24.039C26.6814 23.9272 26.4997 23.9272 26.3876 24.039Z" fill="#A5ACB0"/>
<path d="M31.6904 18.7411L30.9177 19.5123C30.8057 19.6242 30.8057 19.8055 30.9177 19.9174L31.6904 20.6885C31.8024 20.8004 31.9841 20.8004 32.0961 20.6885L32.8688 19.9174C32.9808 19.8055 32.9808 19.6242 32.8688 19.5123L32.0961 18.7411C31.9841 18.6293 31.8024 18.6293 31.6904 18.7411Z" fill="#A5ACB0"/>
<path d="M34.3486 16.0937L33.5759 16.8649C33.4639 16.9767 33.4639 17.158 33.5759 17.2699L34.3486 18.0411C34.4606 18.1529 34.6423 18.1529 34.7543 18.0411L35.527 17.2699C35.639 17.158 35.639 16.9767 35.527 16.8649L34.7543 16.0937C34.6423 15.9818 34.4606 15.9818 34.3486 16.0937Z" fill="#A5ACB0"/>
<path d="M35.6689 14.749L34.8962 15.5201C34.7842 15.632 34.7842 15.8133 34.8962 15.9252L35.6689 16.6964C35.7809 16.8082 35.9626 16.8082 36.0747 16.6964L36.8473 15.9252C36.9593 15.8133 36.9593 15.632 36.8473 15.5201L36.0747 14.749C35.9626 14.6371 35.7809 14.6371 35.6689 14.749Z" fill="#A5ACB0"/>
<path d="M39.6513 10.7929L38.8787 11.5641C38.7666 11.6759 38.7666 11.8573 38.8787 11.9691L39.6513 12.7403C39.7634 12.8521 39.945 12.8521 40.0571 12.7403L40.8297 11.9691C40.9418 11.8573 40.9418 11.6759 40.8297 11.5641L40.0571 10.7929C39.945 10.6811 39.7634 10.6811 39.6513 10.7929Z" fill="#A5ACB0"/>
<path d="M22.4072 25.3554L21.6345 26.1266C21.5225 26.2384 21.5225 26.4198 21.6345 26.5316L22.4072 27.3028C22.5192 27.4146 22.7009 27.4146 22.8129 27.3028L23.5856 26.5316C23.6976 26.4198 23.6976 26.2384 23.5856 26.1266L22.8129 25.3554C22.7009 25.2436 22.5192 25.2436 22.4072 25.3554Z" fill="#A5ACB0"/>
<path d="M23.7275 24.039L22.9548 24.8102C22.8428 24.922 22.8428 25.1034 22.9548 25.2152L23.7275 25.9864C23.8395 26.0982 24.0212 26.0982 24.1332 25.9864L24.9059 25.2152C25.0179 25.1034 25.0179 24.922 24.9059 24.8102L24.1332 24.039C24.0212 23.9272 23.8395 23.9272 23.7275 24.039Z" fill="#A5ACB0"/>
<path d="M26.3876 21.3808L25.615 22.152C25.5029 22.2638 25.5029 22.4452 25.615 22.557L26.3876 23.3282C26.4997 23.44 26.6814 23.44 26.7934 23.3282L27.566 22.557C27.6781 22.4452 27.6781 22.2638 27.566 22.152L26.7934 21.3808C26.6814 21.2689 26.4997 21.2689 26.3876 21.3808Z" fill="#A5ACB0"/>
<path d="M34.3486 13.4433L33.5759 14.2145C33.4639 14.3263 33.4639 14.5077 33.5759 14.6195L34.3486 15.3907C34.4606 15.5025 34.6423 15.5025 34.7543 15.3907L35.527 14.6195C35.639 14.5077 35.639 14.3263 35.527 14.2145L34.7543 13.4433C34.6423 13.3314 34.4606 13.3314 34.3486 13.4433Z" fill="#A5ACB0"/>
<path d="M36.997 10.7929L36.2244 11.5641C36.1123 11.6759 36.1123 11.8573 36.2244 11.9691L36.997 12.7403C37.1091 12.8521 37.2907 12.8521 37.4028 12.7403L38.1754 11.9691C38.2875 11.8573 38.2875 11.6759 38.1754 11.5641L37.4028 10.7929C37.2907 10.6811 37.1091 10.6811 36.997 10.7929Z" fill="#A5ACB0"/>
<path d="M38.3232 9.46868L37.5505 10.2399C37.4385 10.3517 37.4385 10.533 37.5505 10.6449L38.3232 11.4161C38.4352 11.5279 38.6169 11.5279 38.7289 11.4161L39.5016 10.6449C39.6136 10.533 39.6136 10.3517 39.5016 10.2399L38.729 9.46868C38.6169 9.35684 38.4352 9.35684 38.3232 9.46868Z" fill="#A5ACB0"/>
<path d="M40.9814 6.81145L40.2087 7.58265C40.0967 7.69449 40.0967 7.87582 40.2087 7.98766L40.9814 8.75886C41.0934 8.8707 41.2751 8.8707 41.3872 8.75886L42.1598 7.98766C42.2718 7.87582 42.2718 7.69449 42.1598 7.58265L41.3872 6.81145C41.2751 6.69961 41.0934 6.69961 40.9814 6.81145Z" fill="#A5ACB0"/>
<path d="M21.079 24.039L20.3064 24.8102C20.1944 24.922 20.1944 25.1034 20.3064 25.2152L21.079 25.9864C21.1911 26.0982 21.3728 26.0982 21.4848 25.9864L22.2574 25.2152C22.3695 25.1034 22.3695 24.922 22.2574 24.8102L21.4848 24.039C21.3728 23.9272 21.1911 23.9272 21.079 24.039Z" fill="#A5ACB0"/>
<path d="M25.0556 20.0468L24.283 20.818C24.1709 20.9298 24.1709 21.1112 24.283 21.223L25.0556 21.9942C25.1677 22.1061 25.3493 22.1061 25.4614 21.9942L26.234 21.223C26.3461 21.1112 26.3461 20.9298 26.234 20.818L25.4614 20.0468C25.3493 19.935 25.1677 19.935 25.0556 20.0468Z" fill="#A5ACB0"/>
<path d="M26.3876 18.7411L25.615 19.5123C25.5029 19.6242 25.5029 19.8055 25.615 19.9174L26.3876 20.6885C26.4997 20.8004 26.6814 20.8004 26.7934 20.6885L27.566 19.9174C27.6781 19.8055 27.6781 19.6242 27.566 19.5123L26.7934 18.7411C26.6814 18.6293 26.4997 18.6293 26.3876 18.7411Z" fill="#A5ACB0"/>
<path d="M33.0165 12.1191L32.2439 12.8903C32.1319 13.0021 32.1319 13.1834 32.2439 13.2953L33.0165 14.0665C33.1286 14.1783 33.3103 14.1783 33.4223 14.0665L34.1949 13.2953C34.307 13.1834 34.307 13.0021 34.1949 12.8903L33.4223 12.1191C33.3103 12.0072 33.1286 12.0072 33.0165 12.1191Z" fill="#A5ACB0"/>
<path d="M35.6689 9.45891L34.8962 10.2301C34.7842 10.342 34.7842 10.5233 34.8962 10.6351L35.6689 11.4063C35.7809 11.5182 35.9626 11.5182 36.0747 11.4063L36.8473 10.6351C36.9593 10.5233 36.9593 10.342 36.8473 10.2301L36.0747 9.45891C35.9626 9.34707 35.7809 9.34707 35.6689 9.45891Z" fill="#A5ACB0"/>
<path d="M37.0029 8.15032L36.2302 8.92152C36.1182 9.03336 36.1182 9.21469 36.2302 9.32653L37.0029 10.0977C37.1149 10.2096 37.2966 10.2096 37.4086 10.0977L38.1813 9.32653C38.2933 9.21469 38.2933 9.03336 38.1813 8.92152L37.4086 8.15032C37.2966 8.03848 37.1149 8.03848 37.0029 8.15032Z" fill="#A5ACB0"/>
<path d="M21.079 21.3808L20.3064 22.152C20.1944 22.2638 20.1944 22.4452 20.3064 22.557L21.079 23.3282C21.1911 23.44 21.3728 23.44 21.4848 23.3282L22.2574 22.557C22.3695 22.4452 22.3695 22.2638 22.2574 22.152L21.4848 21.3808C21.3728 21.2689 21.1911 21.2689 21.079 21.3808Z" fill="#A5ACB0"/>
<path d="M23.7275 18.7333L22.9548 19.5045C22.8428 19.6164 22.8428 19.7977 22.9548 19.9095L23.7275 20.6807C23.8395 20.7926 24.0212 20.7926 24.1332 20.6807L24.9059 19.9095C25.0179 19.7977 25.0179 19.6164 24.9059 19.5045L24.1332 18.7333C24.0212 18.6215 23.8395 18.6215 23.7275 18.7333Z" fill="#A5ACB0"/>
<path d="M33.0165 9.45891L32.2439 10.2301C32.1319 10.342 32.1319 10.5233 32.2439 10.6351L33.0165 11.4063C33.1286 11.5182 33.3103 11.5182 33.4223 11.4063L34.1949 10.6351C34.307 10.5233 34.307 10.342 34.1949 10.2301L33.4223 9.45891C33.3103 9.34707 33.1286 9.34707 33.0165 9.45891Z" fill="#A5ACB0"/>
<path d="M34.3486 8.15032L33.5759 8.92152C33.4639 9.03336 33.4639 9.21469 33.5759 9.32653L34.3486 10.0977C34.4606 10.2096 34.6423 10.2096 34.7543 10.0977L35.527 9.32653C35.639 9.21469 35.639 9.03336 35.527 8.92152L34.7543 8.15032C34.6423 8.03848 34.4606 8.03848 34.3486 8.15032Z" fill="#A5ACB0"/>
<path d="M37.0029 5.49505L36.2302 6.26624C36.1182 6.37808 36.1182 6.55942 36.2302 6.67126L37.0029 7.44245C37.1149 7.55429 37.2966 7.55429 37.4086 7.44245L38.1813 6.67126C38.2933 6.55942 38.2933 6.37808 38.1813 6.26624L37.4086 5.49505C37.2966 5.38321 37.1149 5.38321 37.0029 5.49505Z" fill="#A5ACB0"/>
<path d="M21.079 18.7411L20.3064 19.5123C20.1944 19.6242 20.1944 19.8055 20.3064 19.9174L21.079 20.6885C21.1911 20.8004 21.3728 20.8004 21.4848 20.6885L22.2574 19.9174C22.3695 19.8055 22.3695 19.6242 22.2574 19.5123L21.4848 18.7411C21.3728 18.6293 21.1911 18.6293 21.079 18.7411Z" fill="#A5ACB0"/>
<path d="M34.3486 5.49505L33.5759 6.26624C33.4639 6.37808 33.4639 6.55942 33.5759 6.67126L34.3486 7.44245C34.4606 7.55429 34.6423 7.55429 34.7543 7.44245L35.527 6.67126C35.639 6.55942 35.639 6.37808 35.527 6.26624L34.7543 5.49505C34.6423 5.38321 34.4606 5.38321 34.3486 5.49505Z" fill="#A5ACB0"/>
<path d="M37.0029 0.20208L36.2302 0.973274C36.1182 1.08512 36.1182 1.26645 36.2302 1.37829L37.0029 2.14948C37.1149 2.26133 37.2966 2.26133 37.4086 2.14948L38.1813 1.37829C38.2933 1.26645 38.2933 1.08512 38.1813 0.973274L37.4086 0.20208C37.2966 0.0902379 37.1149 0.0902379 37.0029 0.20208Z" fill="#A5ACB0"/>
<path d="M26.3876 5.49505L25.615 6.26624C25.5029 6.37808 25.5029 6.55942 25.615 6.67126L26.3876 7.44245C26.4997 7.55429 26.6814 7.55429 26.7934 7.44245L27.566 6.67126C27.6781 6.55942 27.6781 6.37808 27.566 6.26624L26.7934 5.49505C26.6814 5.38321 26.4997 5.38321 26.3876 5.49505Z" fill="#A5ACB0"/>
<path d="M29.0322 29.3398L28.2595 30.111C28.1475 30.2228 28.1475 30.4041 28.2595 30.516L29.0322 31.2872C29.1442 31.399 29.3259 31.399 29.4379 31.2872L30.2106 30.516C30.3226 30.4041 30.3226 30.2228 30.2106 30.111L29.4379 29.3398C29.3259 29.2279 29.1442 29.2279 29.0322 29.3398Z" fill="#A5ACB0"/>
<path d="M30.3622 27.9999L29.5896 28.7711C29.4776 28.883 29.4776 29.0643 29.5896 29.1761L30.3622 29.9473C30.4743 30.0592 30.656 30.0592 30.768 29.9473L31.5406 29.1761C31.6527 29.0643 31.6527 28.883 31.5406 28.7711L30.768 27.9999C30.656 27.8881 30.4743 27.8881 30.3622 27.9999Z" fill="#A5ACB0"/>
<path d="M31.6904 26.6786L30.9177 27.4498C30.8057 27.5617 30.8057 27.743 30.9177 27.8549L31.6904 28.626C31.8024 28.7379 31.9841 28.7379 32.0961 28.626L32.8688 27.8549C32.9808 27.743 32.9808 27.5617 32.8688 27.4498L32.0961 26.6786C31.9841 26.5668 31.8024 26.5668 31.6904 26.6786Z" fill="#A5ACB0"/>
<path d="M34.3486 24.039L33.5759 24.8102C33.4639 24.922 33.4639 25.1034 33.5759 25.2152L34.3486 25.9864C34.4606 26.0982 34.6423 26.0982 34.7543 25.9864L35.527 25.2152C35.639 25.1034 35.639 24.922 35.527 24.8102L34.7543 24.039C34.6423 23.9272 34.4606 23.9272 34.3486 24.039Z" fill="#A5ACB0"/>
<path d="M37.0029 21.3808L36.2302 22.152C36.1182 22.2638 36.1182 22.4452 36.2302 22.557L37.0029 23.3282C37.1149 23.44 37.2966 23.44 37.4086 23.3282L38.1813 22.557C38.2933 22.4452 38.2933 22.2638 38.1813 22.152L37.4086 21.3808C37.2966 21.2689 37.1149 21.2689 37.0029 21.3808Z" fill="#A5ACB0"/>
<path d="M38.3232 20.0468L37.5505 20.818C37.4385 20.9298 37.4385 21.1112 37.5505 21.223L38.3232 21.9942C38.4352 22.1061 38.6169 22.1061 38.729 21.9942L39.5016 21.223C39.6136 21.1112 39.6136 20.9298 39.5016 20.818L38.729 20.0468C38.6169 19.935 38.4352 19.935 38.3232 20.0468Z" fill="#A5ACB0"/>
<path d="M39.6513 18.7411L38.8787 19.5123C38.7666 19.6242 38.7666 19.8055 38.8787 19.9174L39.6513 20.6885C39.7634 20.8004 39.945 20.8004 40.0571 20.6885L40.8297 19.9174C40.9418 19.8055 40.9418 19.6242 40.8297 19.5123L40.0571 18.7411C39.945 18.6293 39.7634 18.6293 39.6513 18.7411Z" fill="#A5ACB0"/>
<path d="M42.3095 16.0829L41.5369 16.8541C41.4248 16.966 41.4248 17.1473 41.5369 17.2591L42.3095 18.0303C42.4216 18.1422 42.6032 18.1422 42.7153 18.0303L43.4879 17.2591C43.6 17.1473 43.6 16.966 43.4879 16.8541L42.7153 16.0829C42.6032 15.9711 42.4216 15.9711 42.3095 16.0829Z" fill="#A5ACB0"/>
<path d="M43.6376 14.749L42.865 15.5201C42.7529 15.632 42.7529 15.8133 42.865 15.9252L43.6376 16.6964C43.7497 16.8082 43.9314 16.8082 44.0434 16.6964L44.816 15.9252C44.9281 15.8133 44.9281 15.632 44.816 15.5201L44.0434 14.749C43.9314 14.6371 43.7497 14.6371 43.6376 14.749Z" fill="#A5ACB0"/>
<path d="M44.9599 13.4433L44.1873 14.2145C44.0752 14.3263 44.0752 14.5077 44.1873 14.6195L44.9599 15.3907C45.0719 15.5025 45.2536 15.5025 45.3657 15.3907L46.1383 14.6195C46.2504 14.5077 46.2504 14.3263 46.1383 14.2145L45.3657 13.4433C45.2536 13.3314 45.0719 13.3314 44.9599 13.4433Z" fill="#A5ACB0"/>
<path d="M31.6904 29.3398L30.9177 30.111C30.8057 30.2228 30.8057 30.4041 30.9177 30.516L31.6904 31.2872C31.8024 31.399 31.9841 31.399 32.0961 31.2872L32.8688 30.516C32.9808 30.4041 32.9808 30.2228 32.8688 30.111L32.0961 29.3398C31.9841 29.2279 31.8024 29.2279 31.6904 29.3398Z" fill="#A5ACB0"/>
<path d="M33.0165 27.9999L32.2439 28.7711C32.1319 28.883 32.1319 29.0643 32.2439 29.1761L33.0165 29.9473C33.1286 30.0592 33.3103 30.0592 33.4223 29.9473L34.1949 29.1761C34.307 29.0643 34.307 28.883 34.1949 28.7711L33.4223 27.9999C33.3103 27.8881 33.1286 27.8881 33.0165 27.9999Z" fill="#A5ACB0"/>
<path d="M35.6747 25.3554L34.9021 26.1266C34.7901 26.2384 34.7901 26.4198 34.9021 26.5316L35.6747 27.3028C35.7868 27.4146 35.9685 27.4146 36.0805 27.3028L36.8531 26.5316C36.9652 26.4198 36.9652 26.2384 36.8531 26.1266L36.0805 25.3554C35.9685 25.2436 35.7868 25.2436 35.6747 25.3554Z" fill="#A5ACB0"/>
<path d="M37.0029 24.039L36.2302 24.8102C36.1182 24.922 36.1182 25.1034 36.2302 25.2152L37.0029 25.9864C37.1149 26.0982 37.2966 26.0982 37.4086 25.9864L38.1813 25.2152C38.2933 25.1034 38.2933 24.922 38.1813 24.8102L37.4086 24.039C37.2966 23.9272 37.1149 23.9272 37.0029 24.039Z" fill="#A5ACB0"/>
<path d="M38.3232 22.705L37.5505 23.4762C37.4385 23.588 37.4385 23.7694 37.5505 23.8812L38.3232 24.6524C38.4352 24.7643 38.6169 24.7643 38.729 24.6524L39.5016 23.8812C39.6136 23.7694 39.6136 23.588 39.5016 23.4762L38.729 22.705C38.6169 22.5932 38.4352 22.5932 38.3232 22.705Z" fill="#A5ACB0"/>
<path d="M40.9814 20.0468L40.2087 20.818C40.0967 20.9298 40.0967 21.1112 40.2087 21.223L40.9814 21.9942C41.0934 22.1061 41.2751 22.1061 41.3872 21.9942L42.1598 21.223C42.2718 21.1112 42.2718 20.9298 42.1598 20.818L41.3872 20.0468C41.2751 19.935 41.0934 19.935 40.9814 20.0468Z" fill="#A5ACB0"/>
<path d="M43.6376 17.4072L42.865 18.1784C42.7529 18.2902 42.7529 18.4715 42.865 18.5834L43.6376 19.3546C43.7497 19.4664 43.9314 19.4664 44.0434 19.3546L44.816 18.5834C44.9281 18.4715 44.9281 18.2902 44.816 18.1784L44.0434 17.4072C43.9314 17.2953 43.7497 17.2953 43.6376 17.4072Z" fill="#A5ACB0"/>
<path d="M47.6122 13.4433L46.8396 14.2145C46.7276 14.3263 46.7276 14.5077 46.8396 14.6195L47.6122 15.3907C47.7243 15.5025 47.906 15.5025 48.018 15.3907L48.7906 14.6195C48.9027 14.5077 48.9027 14.3263 48.7906 14.2145L48.018 13.4433C47.906 13.3314 47.7243 13.3314 47.6122 13.4433Z" fill="#A5ACB0"/>
<path d="M48.9345 12.1191L48.1619 12.8903C48.0498 13.0021 48.0498 13.1834 48.1619 13.2953L48.9345 14.0665C49.0466 14.1783 49.2282 14.1783 49.3403 14.0665L50.1129 13.2953C50.225 13.1834 50.225 13.0021 50.1129 12.8903L49.3403 12.1191C49.2282 12.0072 49.0466 12.0072 48.9345 12.1191Z" fill="#A5ACB0"/>
<path d="M29.0322 34.6318L28.2595 35.403C28.1475 35.5148 28.1475 35.6961 28.2595 35.808L29.0322 36.5792C29.1442 36.691 29.3259 36.691 29.4379 36.5792L30.2106 35.808C30.3226 35.6961 30.3226 35.5148 30.2106 35.403L29.4379 34.6318C29.3259 34.5199 29.1442 34.5199 29.0322 34.6318Z" fill="#A5ACB0"/>
<path d="M31.6904 31.9794L30.9177 32.7506C30.8057 32.8625 30.8057 33.0438 30.9177 33.1556L31.6904 33.9268C31.8024 34.0387 31.9841 34.0387 32.0961 33.9268L32.8688 33.1556C32.9808 33.0438 32.9808 32.8625 32.8688 32.7506L32.0961 31.9794C31.9841 31.8676 31.8024 31.8676 31.6904 31.9794Z" fill="#A5ACB0"/>
<path d="M33.0165 30.6533L32.2439 31.4244C32.1319 31.5363 32.1318 31.7176 32.2439 31.8295L33.0165 32.6007C33.1286 32.7125 33.3103 32.7125 33.4223 32.6007L34.1949 31.8295C34.307 31.7176 34.307 31.5363 34.1949 31.4244L33.4223 30.6532C33.3103 30.5414 33.1286 30.5414 33.0165 30.6533Z" fill="#A5ACB0"/>
<path d="M37.0029 26.6894L36.2302 27.4606C36.1182 27.5724 36.1182 27.7538 36.2302 27.8656L37.0029 28.6368C37.1149 28.7486 37.2966 28.7486 37.4086 28.6368L38.1813 27.8656C38.2933 27.7538 38.2933 27.5724 38.1813 27.4606L37.4086 26.6894C37.2966 26.5775 37.1149 26.5775 37.0029 26.6894Z" fill="#A5ACB0"/>
<path d="M38.3232 25.3554L37.5505 26.1266C37.4385 26.2384 37.4385 26.4198 37.5505 26.5316L38.3232 27.3028C38.4352 27.4146 38.6169 27.4146 38.7289 27.3028L39.5016 26.5316C39.6136 26.4198 39.6136 26.2384 39.5016 26.1266L38.729 25.3554C38.6169 25.2436 38.4352 25.2436 38.3232 25.3554Z" fill="#A5ACB0"/>
<path d="M40.9814 22.705L40.2087 23.4762C40.0967 23.588 40.0967 23.7694 40.2087 23.8812L40.9814 24.6524C41.0934 24.7643 41.2751 24.7643 41.3872 24.6524L42.1598 23.8812C42.2718 23.7694 42.2718 23.588 42.1598 23.4762L41.3872 22.705C41.2751 22.5932 41.0934 22.5932 40.9814 22.705Z" fill="#A5ACB0"/>
<path d="M42.3095 21.3808L41.5369 22.152C41.4248 22.2638 41.4248 22.4452 41.5369 22.557L42.3095 23.3282C42.4216 23.44 42.6032 23.44 42.7153 23.3282L43.4879 22.557C43.6 22.4452 43.6 22.2638 43.4879 22.152L42.7153 21.3808C42.6032 21.2689 42.4216 21.2689 42.3095 21.3808Z" fill="#A5ACB0"/>
<path d="M43.6376 20.0468L42.865 20.818C42.7529 20.9298 42.7529 21.1112 42.865 21.223L43.6376 21.9942C43.7497 22.1061 43.9314 22.1061 44.0434 21.9942L44.816 21.223C44.9281 21.1112 44.9281 20.9298 44.816 20.818L44.0434 20.0468C43.9314 19.935 43.7497 19.935 43.6376 20.0468Z" fill="#A5ACB0"/>
<path d="M44.9599 18.7333L44.1873 19.5045C44.0752 19.6164 44.0752 19.7977 44.1873 19.9095L44.9599 20.6807C45.0719 20.7926 45.2536 20.7926 45.3657 20.6807L46.1383 19.9095C46.2504 19.7977 46.2504 19.6164 46.1383 19.5045L45.3657 18.7333C45.2536 18.6215 45.0719 18.6215 44.9599 18.7333Z" fill="#A5ACB0"/>
<path d="M48.9443 14.749L48.1716 15.5201C48.0596 15.632 48.0596 15.8133 48.1716 15.9252L48.9443 16.6964C49.0563 16.8082 49.238 16.8082 49.35 16.6964L50.1227 15.9252C50.2347 15.8133 50.2347 15.632 50.1227 15.5201L49.35 14.749C49.238 14.6371 49.0563 14.6371 48.9443 14.749Z" fill="#A5ACB0"/>
<path d="M34.3486 31.9794L33.5759 32.7506C33.4639 32.8625 33.4639 33.0438 33.5759 33.1556L34.3486 33.9268C34.4606 34.0387 34.6423 34.0387 34.7543 33.9268L35.527 33.1556C35.639 33.0438 35.639 32.8625 35.527 32.7506L34.7543 31.9794C34.6423 31.8676 34.4606 31.8676 34.3486 31.9794Z" fill="#A5ACB0"/>
<path d="M36.997 29.3398L36.2244 30.111C36.1123 30.2228 36.1123 30.4041 36.2244 30.516L36.997 31.2872C37.1091 31.399 37.2907 31.399 37.4028 31.2872L38.1754 30.516C38.2875 30.4041 38.2875 30.2228 38.1754 30.111L37.4028 29.3398C37.2907 29.2279 37.1091 29.2279 36.997 29.3398Z" fill="#A5ACB0"/>
<path d="M42.3095 24.039L41.5369 24.8102C41.4248 24.922 41.4248 25.1034 41.5369 25.2152L42.3095 25.9864C42.4216 26.0982 42.6032 26.0982 42.7153 25.9864L43.4879 25.2152C43.6 25.1034 43.6 24.922 43.4879 24.8102L42.7153 24.039C42.6032 23.9272 42.4216 23.9272 42.3095 24.039Z" fill="#A5ACB0"/>
<path d="M43.6376 22.705L42.865 23.4762C42.7529 23.588 42.7529 23.7694 42.865 23.8812L43.6376 24.6524C43.7497 24.7643 43.9314 24.7643 44.0434 24.6524L44.816 23.8812C44.9281 23.7694 44.9281 23.588 44.816 23.4762L44.0434 22.705C43.9314 22.5932 43.7497 22.5932 43.6376 22.705Z" fill="#A5ACB0"/>
<path d="M48.9443 17.4169L48.1716 18.1881C48.0596 18.3 48.0596 18.4813 48.1716 18.5931L48.9443 19.3643C49.0563 19.4762 49.238 19.4762 49.35 19.3643L50.1227 18.5931C50.2347 18.4813 50.2347 18.3 50.1227 18.1881L49.35 17.4169C49.238 17.3051 49.0563 17.3051 48.9443 17.4169Z" fill="#A5ACB0"/>
<path d="M50.2724 16.0937L49.4998 16.8649C49.3877 16.9767 49.3877 17.158 49.4998 17.2699L50.2724 18.0411C50.3844 18.1529 50.5661 18.1529 50.6782 18.0411L51.4508 17.2699C51.5629 17.158 51.5629 16.9767 51.4508 16.8649L50.6782 16.0937C50.5661 15.9818 50.3844 15.9818 50.2724 16.0937Z" fill="#A5ACB0"/>
<path d="M51.6005 14.749L50.8279 15.5201C50.7158 15.632 50.7158 15.8133 50.8279 15.9252L51.6005 16.6964C51.7126 16.8082 51.8942 16.8082 52.0063 16.6964L52.7789 15.9252C52.891 15.8133 52.891 15.632 52.7789 15.5201L52.0063 14.749C51.8942 14.6371 51.7126 14.6371 51.6005 14.749Z" fill="#A5ACB0"/>
<path d="M31.6904 37.2822L30.9177 38.0534C30.8057 38.1652 30.8057 38.3465 30.9177 38.4584L31.6904 39.2296C31.8024 39.3414 31.9841 39.3414 32.0961 39.2296L32.8688 38.4584C32.9808 38.3465 32.9808 38.1652 32.8688 38.0534L32.0961 37.2822C31.9841 37.1703 31.8024 37.1703 31.6904 37.2822Z" fill="#A5ACB0"/>
<path d="M34.3486 34.6318L33.5759 35.403C33.4639 35.5148 33.4639 35.6961 33.5759 35.808L34.3486 36.5792C34.4606 36.691 34.6423 36.691 34.7543 36.5792L35.527 35.808C35.639 35.6961 35.639 35.5148 35.527 35.403L34.7543 34.6318C34.6423 34.5199 34.4606 34.5199 34.3486 34.6318Z" fill="#A5ACB0"/>
<path d="M38.331 30.6533L37.5584 31.4244C37.4463 31.5363 37.4463 31.7176 37.5584 31.8295L38.331 32.6007C38.443 32.7125 38.6247 32.7125 38.7368 32.6007L39.5094 31.8295C39.6214 31.7176 39.6215 31.5363 39.5094 31.4244L38.7368 30.6532C38.6247 30.5414 38.443 30.5414 38.331 30.6533Z" fill="#A5ACB0"/>
<path d="M42.3095 26.6786L41.5369 27.4498C41.4248 27.5617 41.4248 27.743 41.5369 27.8549L42.3095 28.626C42.4216 28.7379 42.6032 28.7379 42.7153 28.626L43.4879 27.8549C43.6 27.743 43.6 27.5617 43.4879 27.4498L42.7153 26.6786C42.6032 26.5668 42.4216 26.5668 42.3095 26.6786Z" fill="#A5ACB0"/>
<path d="M43.6376 25.3554L42.865 26.1266C42.7529 26.2384 42.7529 26.4198 42.865 26.5316L43.6376 27.3028C43.7497 27.4146 43.9314 27.4146 44.0434 27.3028L44.816 26.5316C44.9281 26.4198 44.9281 26.2384 44.816 26.1266L44.0434 25.3554C43.9314 25.2436 43.7497 25.2436 43.6376 25.3554Z" fill="#A5ACB0"/>
<path d="M48.9345 20.0468L48.1619 20.818C48.0498 20.9298 48.0498 21.1112 48.1619 21.223L48.9345 21.9942C49.0466 22.1061 49.2282 22.1061 49.3403 21.9942L50.1129 21.223C50.225 21.1112 50.225 20.9298 50.1129 20.818L49.3403 20.0468C49.2282 19.935 49.0466 19.935 48.9345 20.0468Z" fill="#A5ACB0"/>
<path d="M50.2724 18.7411L49.4998 19.5123C49.3877 19.6242 49.3877 19.8055 49.4998 19.9174L50.2724 20.6885C50.3844 20.8004 50.5661 20.8004 50.6782 20.6885L51.4508 19.9174C51.5629 19.8055 51.5629 19.6242 51.4508 19.5123L50.6782 18.7411C50.5661 18.6293 50.3844 18.6293 50.2724 18.7411Z" fill="#A5ACB0"/>
<path d="M51.6005 17.4072L50.8279 18.1784C50.7158 18.2902 50.7158 18.4715 50.8279 18.5834L51.6005 19.3546C51.7126 19.4664 51.8942 19.4664 52.0063 19.3546L52.7789 18.5834C52.891 18.4715 52.891 18.2902 52.7789 18.1784L52.0063 17.4072C51.8942 17.2953 51.7126 17.2953 51.6005 17.4072Z" fill="#A5ACB0"/>
<path d="M52.9208 16.0937L52.1482 16.8649C52.0361 16.9767 52.0361 17.158 52.1482 17.2699L52.9208 18.0411C53.0329 18.1529 53.2146 18.1529 53.3266 18.0411L54.0992 17.2699C54.2113 17.158 54.2113 16.9767 54.0992 16.8649L53.3266 16.0937C53.2146 15.9818 53.0329 15.9818 52.9208 16.0937Z" fill="#A5ACB0"/>
<path d="M35.6689 35.9482L34.8962 36.7194C34.7842 36.8312 34.7842 37.0125 34.8962 37.1244L35.6689 37.8956C35.7809 38.0074 35.9626 38.0074 36.0747 37.8956L36.8473 37.1244C36.9593 37.0125 36.9593 36.8312 36.8473 36.7194L36.0747 35.9482C35.9626 35.8363 35.7809 35.8363 35.6689 35.9482Z" fill="#A5ACB0"/>
<path d="M39.6513 31.9794L38.8787 32.7506C38.7666 32.8625 38.7666 33.0438 38.8787 33.1556L39.6513 33.9268C39.7634 34.0387 39.945 34.0387 40.0571 33.9268L40.8297 33.1556C40.9418 33.0438 40.9418 32.8625 40.8297 32.7506L40.0571 31.9794C39.945 31.8676 39.7634 31.8676 39.6513 31.9794Z" fill="#A5ACB0"/>
<path d="M42.3095 29.3398L41.5369 30.111C41.4248 30.2228 41.4248 30.4041 41.5369 30.516L42.3095 31.2872C42.4216 31.399 42.6032 31.399 42.7153 31.2872L43.4879 30.516C43.6 30.4041 43.6 30.2228 43.4879 30.111L42.7153 29.3398C42.6032 29.2279 42.4216 29.2279 42.3095 29.3398Z" fill="#A5ACB0"/>
<path d="M43.6376 27.9999L42.865 28.7711C42.7529 28.883 42.7529 29.0643 42.865 29.1761L43.6376 29.9473C43.7497 30.0592 43.9314 30.0592 44.0434 29.9473L44.816 29.1761C44.9281 29.0643 44.9281 28.883 44.816 28.7711L44.0434 27.9999C43.9314 27.8881 43.7497 27.8881 43.6376 27.9999Z" fill="#A5ACB0"/>
<path d="M48.9345 22.705L48.1619 23.4762C48.0498 23.588 48.0498 23.7694 48.1619 23.8812L48.9345 24.6524C49.0466 24.7643 49.2282 24.7643 49.3403 24.6524L50.1129 23.8812C50.225 23.7694 50.225 23.588 50.1129 23.4762L49.3403 22.705C49.2282 22.5932 49.0466 22.5932 48.9345 22.705Z" fill="#A5ACB0"/>
<path d="M50.2724 21.3808L49.4998 22.152C49.3877 22.2638 49.3877 22.4452 49.4998 22.557L50.2724 23.3282C50.3844 23.44 50.5661 23.44 50.6782 23.3282L51.4508 22.557C51.5629 22.4452 51.5629 22.2638 51.4508 22.152L50.6782 21.3808C50.5661 21.2689 50.3844 21.2689 50.2724 21.3808Z" fill="#A5ACB0"/>
<path d="M51.6005 20.0468L50.8279 20.818C50.7158 20.9298 50.7158 21.1112 50.8279 21.223L51.6005 21.9942C51.7126 22.1061 51.8942 22.1061 52.0063 21.9942L52.7789 21.223C52.891 21.1112 52.891 20.9298 52.7789 20.818L52.0063 20.0468C51.8942 19.935 51.7126 19.935 51.6005 20.0468Z" fill="#A5ACB0"/>
<path d="M52.9208 18.7411L52.1482 19.5123C52.0361 19.6242 52.0361 19.8055 52.1482 19.9174L52.9208 20.6885C53.0329 20.8004 53.2146 20.8004 53.3266 20.6885L54.0992 19.9174C54.2113 19.8055 54.2113 19.6242 54.0992 19.5123L53.3266 18.7411C53.2146 18.6293 53.0329 18.6293 52.9208 18.7411Z" fill="#A5ACB0"/>
<path d="M54.247 17.4072L53.4744 18.1784C53.3623 18.2902 53.3623 18.4715 53.4744 18.5834L54.247 19.3546C54.3591 19.4664 54.5407 19.4664 54.6528 19.3546L55.4254 18.5834C55.5375 18.4715 55.5375 18.2902 55.4254 18.1784L54.6528 17.4072C54.5407 17.2953 54.3591 17.2953 54.247 17.4072Z" fill="#A5ACB0"/>
<path d="M34.3486 39.9296L33.5759 40.7008C33.4639 40.8127 33.4639 40.994 33.5759 41.1058L34.3486 41.877C34.4606 41.9889 34.6423 41.9889 34.7543 41.877L35.527 41.1058C35.639 40.994 35.639 40.8127 35.527 40.7008L34.7543 39.9296C34.6423 39.8178 34.4606 39.8178 34.3486 39.9296Z" fill="#071897"/>
<path d="M39.6513 34.6318L38.8787 35.403C38.7666 35.5148 38.7666 35.6961 38.8787 35.808L39.6513 36.5792C39.7634 36.691 39.945 36.691 40.0571 36.5792L40.8297 35.808C40.9418 35.6961 40.9418 35.5148 40.8297 35.403L40.0571 34.6318C39.945 34.5199 39.7634 34.5199 39.6513 34.6318Z" fill="#A5ACB0"/>
<path d="M43.6298 30.6533L42.8572 31.4244C42.7451 31.5363 42.7451 31.7176 42.8572 31.8295L43.6298 32.6007C43.7419 32.7125 43.9235 32.7125 44.0356 32.6007L44.8082 31.8295C44.9203 31.7176 44.9203 31.5363 44.8082 31.4244L44.0356 30.6533C43.9235 30.5414 43.7419 30.5414 43.6298 30.6533Z" fill="#A5ACB0"/>
<path d="M48.9345 25.3554L48.1619 26.1266C48.0498 26.2384 48.0498 26.4198 48.1619 26.5316L48.9345 27.3028C49.0466 27.4146 49.2282 27.4146 49.3403 27.3028L50.1129 26.5316C50.225 26.4198 50.225 26.2384 50.1129 26.1266L49.3403 25.3554C49.2282 25.2436 49.0466 25.2436 48.9345 25.3554Z" fill="#A5ACB0"/>
<path d="M50.2724 24.039L49.4998 24.8102C49.3877 24.922 49.3877 25.1034 49.4998 25.2152L50.2724 25.9864C50.3844 26.0982 50.5661 26.0982 50.6782 25.9864L51.4508 25.2152C51.5629 25.1034 51.5629 24.922 51.4508 24.8102L50.6782 24.039C50.5661 23.9271 50.3844 23.9272 50.2724 24.039Z" fill="#A5ACB0"/>
<path d="M51.6005 22.705L50.8279 23.4762C50.7158 23.588 50.7158 23.7694 50.8279 23.8812L51.6005 24.6524C51.7126 24.7643 51.8942 24.7643 52.0063 24.6524L52.7789 23.8812C52.891 23.7694 52.891 23.588 52.7789 23.4762L52.0063 22.705C51.8942 22.5932 51.7126 22.5932 51.6005 22.705Z" fill="#A5ACB0"/>
<path d="M55.5654 18.7411L54.7927 19.5123C54.6807 19.6242 54.6807 19.8055 54.7927 19.9174L55.5654 20.6885C55.6774 20.8004 55.8591 20.8004 55.9711 20.6885L56.7438 19.9174C56.8558 19.8055 56.8558 19.6242 56.7438 19.5123L55.9711 18.7411C55.8591 18.6293 55.6774 18.6293 55.5654 18.7411Z" fill="#A5ACB0"/>
<path d="M35.6689 41.246L34.8962 42.0172C34.7842 42.1291 34.7842 42.3104 34.8962 42.4222L35.6689 43.1934C35.7809 43.3053 35.9626 43.3053 36.0747 43.1934L36.8473 42.4222C36.9593 42.3104 36.9593 42.1291 36.8473 42.0172L36.0747 41.246C35.9626 41.1342 35.7809 41.1342 35.6689 41.246Z" fill="#071897"/>
<path d="M36.997 39.9296L36.2244 40.7008C36.1123 40.8127 36.1123 40.994 36.2244 41.1058L36.997 41.877C37.1091 41.9889 37.2907 41.9889 37.4028 41.877L38.1754 41.1058C38.2875 40.994 38.2875 40.8127 38.1754 40.7008L37.4028 39.9296C37.2907 39.8178 37.1091 39.8178 36.997 39.9296Z" fill="#071897"/>
<path d="M48.9345 27.9999L48.1619 28.7711C48.0498 28.883 48.0498 29.0643 48.1619 29.1761L48.9345 29.9473C49.0466 30.0592 49.2282 30.0592 49.3403 29.9473L50.1129 29.1761C50.225 29.0643 50.225 28.883 50.1129 28.7711L49.3403 27.9999C49.2282 27.8881 49.0466 27.8881 48.9345 27.9999Z" fill="#A5ACB0"/>
<path d="M50.2724 26.6786L49.4998 27.4498C49.3877 27.5617 49.3877 27.743 49.4998 27.8549L50.2724 28.626C50.3844 28.7379 50.5661 28.7379 50.6782 28.626L51.4508 27.8549C51.5629 27.743 51.5629 27.5617 51.4508 27.4498L50.6782 26.6786C50.5661 26.5668 50.3844 26.5668 50.2724 26.6786Z" fill="#A5ACB0"/>
<path d="M55.5771 21.4013L54.8044 22.1725C54.6924 22.2843 54.6924 22.4657 54.8044 22.5775L55.5771 23.3487C55.6891 23.4605 55.8708 23.4605 55.9829 23.3487L56.7555 22.5775C56.8675 22.4657 56.8675 22.2843 56.7555 22.1725L55.9829 21.4013C55.8708 21.2895 55.6891 21.2895 55.5771 21.4013Z" fill="#A5ACB0"/>
<path d="M56.8954 20.0468L56.1228 20.818C56.0108 20.9298 56.0108 21.1112 56.1228 21.223L56.8954 21.9942C57.0075 22.1061 57.1892 22.1061 57.3012 21.9942L58.0739 21.223C58.1859 21.1112 58.1859 20.9298 58.0739 20.818L57.3012 20.0468C57.1892 19.935 57.0075 19.935 56.8954 20.0468Z" fill="#A5ACB0"/>
<path d="M37.0029 42.58L36.2302 43.3512C36.1182 43.463 36.1182 43.6444 36.2302 43.7562L37.0029 44.5274C37.1149 44.6393 37.2966 44.6393 37.4086 44.5274L38.1813 43.7562C38.2933 43.6444 38.2933 43.463 38.1813 43.3512L37.4086 42.58C37.2966 42.4682 37.1149 42.4682 37.0029 42.58Z" fill="#071897"/>
<path d="M38.3232 41.246L37.5505 42.0172C37.4385 42.1291 37.4385 42.3104 37.5505 42.4222L38.3232 43.1934C38.4352 43.3053 38.6169 43.3053 38.7289 43.1934L39.5016 42.4222C39.6136 42.3104 39.6136 42.1291 39.5016 42.0172L38.7289 41.246C38.6169 41.1342 38.4352 41.1342 38.3232 41.246Z" fill="#071897"/>
<path d="M39.6513 39.9296L38.8787 40.7008C38.7666 40.8127 38.7666 40.994 38.8787 41.1058L39.6513 41.877C39.7634 41.9889 39.945 41.9889 40.0571 41.877L40.8297 41.1058C40.9418 40.994 40.9418 40.8127 40.8297 40.7008L40.0571 39.9296C39.945 39.8178 39.7634 39.8178 39.6513 39.9296Z" fill="#071897"/>
<path d="M48.9345 30.6533L48.1619 31.4244C48.0498 31.5363 48.0498 31.7176 48.1619 31.8295L48.9345 32.6007C49.0466 32.7125 49.2282 32.7125 49.3403 32.6007L50.1129 31.8295C50.225 31.7176 50.225 31.5363 50.1129 31.4244L49.3403 30.6533C49.2282 30.5414 49.0466 30.5414 48.9345 30.6533Z" fill="#A5ACB0"/>
<path d="M54.247 25.3554L53.4744 26.1266C53.3623 26.2384 53.3623 26.4198 53.4744 26.5316L54.247 27.3028C54.3591 27.4146 54.5407 27.4146 54.6528 27.3028L55.4254 26.5316C55.5375 26.4198 55.5375 26.2384 55.4254 26.1266L54.6528 25.3554C54.5407 25.2436 54.3591 25.2436 54.247 25.3554Z" fill="#A5ACB0"/>
<path d="M55.5654 24.039L54.7927 24.8102C54.6807 24.922 54.6807 25.1034 54.7927 25.2152L55.5654 25.9864C55.6774 26.0982 55.8591 26.0982 55.9711 25.9864L56.7438 25.2152C56.8558 25.1034 56.8558 24.922 56.7438 24.8102L55.9711 24.039C55.8591 23.9271 55.6774 23.9272 55.5654 24.039Z" fill="#A5ACB0"/>
<path d="M56.8954 22.705L56.1228 23.4762C56.0108 23.588 56.0108 23.7694 56.1228 23.8812L56.8954 24.6524C57.0075 24.7643 57.1892 24.7643 57.3012 24.6524L58.0739 23.8812C58.1859 23.7694 58.1859 23.588 58.0739 23.4762L57.3012 22.705C57.1892 22.5932 57.0075 22.5932 56.8954 22.705Z" fill="#A5ACB0"/>
<path d="M58.2333 21.3808L57.4607 22.152C57.3486 22.2638 57.3486 22.4452 57.4607 22.557L58.2333 23.3282C58.3454 23.44 58.5271 23.44 58.6391 23.3282L59.4117 22.557C59.5238 22.4452 59.5238 22.2638 59.4117 22.152L58.6391 21.3808C58.5271 21.2689 58.3454 21.2689 58.2333 21.3808Z" fill="#A5ACB0"/>
<path d="M38.3232 43.8964L37.5505 44.6676C37.4385 44.7795 37.4385 44.9608 37.5505 45.0726L38.3232 45.8438C38.4352 45.9557 38.6169 45.9557 38.7289 45.8438L39.5016 45.0726C39.6136 44.9608 39.6136 44.7795 39.5016 44.6676L38.7289 43.8964C38.6169 43.7846 38.4352 43.7846 38.3232 43.8964Z" fill="#071897"/>
<path d="M39.6513 42.5702L38.8787 43.3414C38.7666 43.4533 38.7666 43.6346 38.8787 43.7465L39.6513 44.5176C39.7634 44.6295 39.945 44.6295 40.0571 44.5176L40.8297 43.7465C40.9418 43.6346 40.9418 43.4533 40.8297 43.3414L40.0571 42.5702C39.945 42.4584 39.7634 42.4584 39.6513 42.5702Z" fill="#071897"/>
<path d="M40.9814 41.246L40.2087 42.0172C40.0967 42.1291 40.0967 42.3104 40.2087 42.4222L40.9814 43.1934C41.0934 43.3053 41.2751 43.3053 41.3872 43.1934L42.1598 42.4222C42.2718 42.3104 42.2718 42.1291 42.1598 42.0172L41.3872 41.246C41.2751 41.1342 41.0934 41.1342 40.9814 41.246Z" fill="#071897"/>
<path d="M42.2997 39.9296L41.5271 40.7008C41.4151 40.8127 41.4151 40.994 41.5271 41.1058L42.2997 41.877C42.4118 41.9889 42.5935 41.9889 42.7055 41.877L43.4781 41.1058C43.5902 40.994 43.5902 40.8127 43.4781 40.7008L42.7055 39.9296C42.5935 39.8178 42.4118 39.8178 42.2997 39.9296Z" fill="#071897"/>
<path d="M48.9345 33.2978L48.1619 34.069C48.0498 34.1808 48.0498 34.3621 48.1619 34.474L48.9345 35.2452C49.0466 35.357 49.2282 35.357 49.3403 35.2452L50.1129 34.474C50.225 34.3621 50.225 34.1808 50.1129 34.069L49.3403 33.2978C49.2282 33.1859 49.0466 33.1859 48.9345 33.2978Z" fill="#A5ACB0"/>
<path d="M54.247 27.9999L53.4744 28.7711C53.3623 28.883 53.3623 29.0643 53.4744 29.1761L54.247 29.9473C54.3591 30.0592 54.5407 30.0592 54.6528 29.9473L55.4254 29.1761C55.5375 29.0643 55.5375 28.883 55.4254 28.7711L54.6528 27.9999C54.5407 27.8881 54.3591 27.8881 54.247 27.9999Z" fill="#A5ACB0"/>
<path d="M55.5771 26.6786L54.8044 27.4498C54.6924 27.5617 54.6924 27.743 54.8044 27.8549L55.5771 28.626C55.6891 28.7379 55.8708 28.7379 55.9829 28.626L56.7555 27.8549C56.8675 27.743 56.8675 27.5617 56.7555 27.4498L55.9829 26.6786C55.8708 26.5668 55.6891 26.5668 55.5771 26.6786Z" fill="#A5ACB0"/>
<path d="M56.8954 25.3554L56.1228 26.1266C56.0108 26.2384 56.0108 26.4198 56.1228 26.5316L56.8954 27.3028C57.0075 27.4146 57.1892 27.4146 57.3012 27.3028L58.0739 26.5316C58.1859 26.4198 58.1859 26.2384 58.0739 26.1266L57.3012 25.3554C57.1892 25.2436 57.0075 25.2436 56.8954 25.3554Z" fill="#A5ACB0"/>
<path d="M58.2275 24.039L57.4548 24.8102C57.3428 24.922 57.3428 25.1034 57.4548 25.2152L58.2275 25.9864C58.3395 26.0982 58.5212 26.0982 58.6332 25.9864L59.4059 25.2152C59.5179 25.1034 59.5179 24.922 59.4059 24.8102L58.6332 24.039C58.5212 23.9271 58.3395 23.9272 58.2275 24.039Z" fill="#A5ACB0"/>
<path d="M59.5536 22.705L58.781 23.4762C58.669 23.588 58.669 23.7694 58.781 23.8812L59.5536 24.6524C59.6657 24.7643 59.8474 24.7643 59.9594 24.6524L60.7321 23.8812C60.8441 23.7694 60.8441 23.588 60.7321 23.4762L59.9594 22.705C59.8474 22.5932 59.6657 22.5932 59.5536 22.705Z" fill="#A5ACB0"/>
<path d="M39.6513 45.2304L38.8787 46.0016C38.7666 46.1134 38.7666 46.2948 38.8787 46.4066L39.6513 47.1778C39.7634 47.2896 39.945 47.2896 40.0571 47.1778L40.8297 46.4066C40.9418 46.2948 40.9418 46.1134 40.8297 46.0016L40.0571 45.2304C39.945 45.1186 39.7634 45.1186 39.6513 45.2304Z" fill="#071897"/>
<path d="M40.9814 43.8964L40.2087 44.6676C40.0967 44.7795 40.0967 44.9608 40.2087 45.0726L40.9814 45.8438C41.0934 45.9557 41.2751 45.9557 41.3872 45.8438L42.1598 45.0726C42.2718 44.9608 42.2718 44.7795 42.1598 44.6676L41.3872 43.8964C41.2751 43.7846 41.0934 43.7846 40.9814 43.8964Z" fill="#071897"/>
<path d="M42.3095 42.5702L41.5369 43.3414C41.4248 43.4533 41.4248 43.6346 41.5369 43.7465L42.3095 44.5176C42.4216 44.6295 42.6032 44.6295 42.7153 44.5176L43.4879 43.7465C43.6 43.6346 43.6 43.4533 43.4879 43.3414L42.7153 42.5702C42.6032 42.4584 42.4216 42.4584 42.3095 42.5702Z" fill="#071897"/>
<path d="M43.6376 41.246L42.865 42.0172C42.7529 42.1291 42.7529 42.3104 42.865 42.4222L43.6376 43.1934C43.7497 43.3053 43.9314 43.3053 44.0434 43.1934L44.816 42.4222C44.9281 42.3104 44.9281 42.1291 44.816 42.0172L44.0434 41.246C43.9314 41.1342 43.7497 41.1342 43.6376 41.246Z" fill="#071897"/>
<path d="M44.9599 39.9296L44.1873 40.7008C44.0752 40.8127 44.0752 40.994 44.1873 41.1058L44.9599 41.877C45.0719 41.9889 45.2536 41.9889 45.3657 41.877L46.1383 41.1058C46.2504 40.994 46.2504 40.8127 46.1383 40.7008L45.3657 39.9296C45.2536 39.8178 45.0719 39.8178 44.9599 39.9296Z" fill="#071897"/>
<path d="M48.9443 35.9609L48.1716 36.7321C48.0596 36.8439 48.0596 37.0252 48.1716 37.1371L48.9443 37.9083C49.0563 38.0201 49.238 38.0201 49.35 37.9083L50.1227 37.1371C50.2347 37.0252 50.2347 36.8439 50.1227 36.7321L49.35 35.9609C49.238 35.849 49.0563 35.849 48.9443 35.9609Z" fill="#A5ACB0"/>
<path d="M54.247 30.6533L53.4744 31.4244C53.3623 31.5363 53.3623 31.7176 53.4744 31.8295L54.247 32.6007C54.3591 32.7125 54.5407 32.7125 54.6528 32.6007L55.4254 31.8295C55.5375 31.7176 55.5375 31.5363 55.4254 31.4244L54.6528 30.6533C54.5407 30.5414 54.3591 30.5414 54.247 30.6533Z" fill="#A5ACB0"/>
<path d="M55.5771 29.3398L54.8044 30.111C54.6924 30.2228 54.6924 30.4041 54.8044 30.516L55.5771 31.2872C55.6891 31.399 55.8708 31.399 55.9829 31.2872L56.7555 30.516C56.8675 30.4041 56.8675 30.2228 56.7555 30.111L55.9829 29.3398C55.8708 29.2279 55.6891 29.2279 55.5771 29.3398Z" fill="#A5ACB0"/>
<path d="M56.8954 27.9999L56.1228 28.7711C56.0108 28.883 56.0108 29.0643 56.1228 29.1761L56.8954 29.9473C57.0075 30.0592 57.1892 30.0592 57.3012 29.9473L58.0739 29.1761C58.1859 29.0643 58.1859 28.883 58.0739 28.7711L57.3012 27.9999C57.1892 27.8881 57.0075 27.8881 56.8954 27.9999Z" fill="#A5ACB0"/>
<path d="M60.8818 24.039L60.1091 24.8102C59.9971 24.922 59.9971 25.1034 60.1091 25.2152L60.8818 25.9864C60.9938 26.0982 61.1755 26.0982 61.2875 25.9864L62.0602 25.2152C62.1722 25.1034 62.1722 24.922 62.0602 24.8102L61.2875 24.039C61.1755 23.9271 60.9938 23.9272 60.8818 24.039Z" fill="#A5ACB0"/>
<path d="M40.9814 46.5439L40.2087 47.3151C40.0967 47.4269 40.0967 47.6082 40.2087 47.7201L40.9814 48.4913C41.0934 48.6031 41.2751 48.6031 41.3872 48.4913L42.1598 47.7201C42.2718 47.6082 42.2718 47.4269 42.1598 47.3151L41.3872 46.5439C41.2751 46.432 41.0934 46.432 40.9814 46.5439Z" fill="#071897"/>
<path d="M42.3095 45.2304L41.5369 46.0016C41.4248 46.1134 41.4248 46.2948 41.5369 46.4066L42.3095 47.1778C42.4216 47.2896 42.6032 47.2896 42.7153 47.1778L43.4879 46.4066C43.6 46.2948 43.6 46.1134 43.4879 46.0016L42.7153 45.2304C42.6032 45.1186 42.4216 45.1186 42.3095 45.2304Z" fill="#071897"/>
<path d="M43.6376 43.8964L42.865 44.6676C42.7529 44.7795 42.7529 44.9608 42.865 45.0726L43.6376 45.8438C43.7497 45.9557 43.9314 45.9557 44.0434 45.8438L44.816 45.0726C44.9281 44.9608 44.9281 44.7795 44.816 44.6676L44.0434 43.8964C43.9314 43.7846 43.7497 43.7846 43.6376 43.8964Z" fill="#071897"/>
<path d="M44.9658 42.5702L44.1931 43.3414C44.0811 43.4533 44.0811 43.6346 44.1931 43.7465L44.9658 44.5176C45.0778 44.6295 45.2595 44.6295 45.3715 44.5176L46.1442 43.7465C46.2562 43.6346 46.2562 43.4533 46.1442 43.3414L45.3715 42.5702C45.2595 42.4584 45.0778 42.4584 44.9658 42.5702Z" fill="#071897"/>
<path d="M46.2841 41.246L45.5115 42.0172C45.3994 42.1291 45.3994 42.3104 45.5115 42.4222L46.2841 43.1934C46.3962 43.3053 46.5778 43.3053 46.6899 43.1934L47.4625 42.4222C47.5746 42.3104 47.5746 42.1291 47.4625 42.0172L46.6899 41.246C46.5778 41.1342 46.3962 41.1342 46.2841 41.246Z" fill="#071897"/>
<path d="M47.6122 39.9296L46.8396 40.7008C46.7276 40.8127 46.7276 40.994 46.8396 41.1058L47.6122 41.877C47.7243 41.9889 47.906 41.9889 48.018 41.877L48.7907 41.1058C48.9027 40.994 48.9027 40.8127 48.7907 40.7008L48.018 39.9296C47.906 39.8178 47.7243 39.8178 47.6122 39.9296Z" fill="#071897"/>
<path d="M52.9208 34.6318L52.1482 35.403C52.0361 35.5148 52.0361 35.6961 52.1482 35.808L52.9208 36.5792C53.0329 36.691 53.2146 36.691 53.3266 36.5792L54.0992 35.808C54.2113 35.6961 54.2113 35.5148 54.0992 35.403L53.3266 34.6318C53.2146 34.5199 53.0329 34.5199 52.9208 34.6318Z" fill="#A5ACB0"/>
<path d="M59.5536 27.9999L58.781 28.7711C58.669 28.883 58.669 29.0643 58.781 29.1761L59.5536 29.9473C59.6657 30.0592 59.8474 30.0592 59.9594 29.9473L60.7321 29.1761C60.8441 29.0643 60.8441 28.883 60.7321 28.7711L59.9594 27.9999C59.8474 27.8881 59.6657 27.8881 59.5536 27.9999Z" fill="#A5ACB0"/>
<path d="M60.8818 26.6786L60.1091 27.4498C59.9971 27.5617 59.9971 27.743 60.1091 27.8549L60.8818 28.626C60.9938 28.7379 61.1755 28.7379 61.2875 28.626L62.0602 27.8549C62.1722 27.743 62.1722 27.5617 62.0602 27.4498L61.2875 26.6786C61.1755 26.5668 60.9938 26.5668 60.8818 26.6786Z" fill="#A5ACB0"/>
<path d="M62.2079 25.3554L61.4353 26.1266C61.3233 26.2384 61.3233 26.4198 61.4353 26.5316L62.2079 27.3028C62.32 27.4146 62.5017 27.4146 62.6137 27.3028L63.3864 26.5316C63.4984 26.4198 63.4984 26.2384 63.3864 26.1266L62.6137 25.3554C62.5017 25.2436 62.32 25.2436 62.2079 25.3554Z" fill="#A5ACB0"/>
<path d="M42.3095 47.87L41.5369 48.6412C41.4248 48.7531 41.4248 48.9344 41.5369 49.0463L42.3095 49.8175C42.4216 49.9293 42.6032 49.9293 42.7153 49.8175L43.4879 49.0463C43.6 48.9344 43.6 48.7531 43.4879 48.6412L42.7153 47.87C42.6032 47.7582 42.4216 47.7582 42.3095 47.87Z" fill="#071897"/>
<path d="M43.6376 46.5439L42.865 47.3151C42.7529 47.4269 42.7529 47.6082 42.865 47.7201L43.6376 48.4913C43.7497 48.6031 43.9314 48.6031 44.0434 48.4913L44.816 47.7201C44.9281 47.6082 44.9281 47.4269 44.816 47.3151L44.0434 46.5439C43.9314 46.432 43.7497 46.432 43.6376 46.5439Z" fill="#071897"/>
<path d="M44.9599 45.2304L44.1873 46.0016C44.0752 46.1134 44.0752 46.2948 44.1873 46.4066L44.9599 47.1778C45.0719 47.2896 45.2536 47.2896 45.3657 47.1778L46.1383 46.4066C46.2504 46.2948 46.2504 46.1134 46.1383 46.0016L45.3657 45.2304C45.2536 45.1186 45.0719 45.1186 44.9599 45.2304Z" fill="#071897"/>
<path d="M46.2841 43.9042L45.5115 44.6754C45.3994 44.7873 45.3994 44.9686 45.5115 45.0804L46.2841 45.8516C46.3962 45.9635 46.5778 45.9635 46.6899 45.8516L47.4625 45.0804C47.5746 44.9686 47.5746 44.7873 47.4625 44.6754L46.6899 43.9042C46.5778 43.7924 46.3962 43.7924 46.2841 43.9042Z" fill="#071897"/>
<path d="M47.6122 42.5702L46.8396 43.3414C46.7276 43.4533 46.7276 43.6346 46.8396 43.7465L47.6122 44.5176C47.7243 44.6295 47.906 44.6295 48.018 44.5176L48.7906 43.7465C48.9027 43.6346 48.9027 43.4533 48.7907 43.3414L48.018 42.5702C47.906 42.4584 47.7243 42.4584 47.6122 42.5702Z" fill="#071897"/>
<path d="M48.9345 41.246L48.1619 42.0172C48.0498 42.1291 48.0498 42.3104 48.1619 42.4222L48.9345 43.1934C49.0466 43.3053 49.2282 43.3053 49.3403 43.1934L50.1129 42.4222C50.225 42.3104 50.225 42.1291 50.1129 42.0172L49.3403 41.246C49.2282 41.1342 49.0466 41.1342 48.9345 41.246Z" fill="#071897"/>
<path d="M50.2724 39.9296L49.4998 40.7008C49.3877 40.8127 49.3877 40.994 49.4998 41.1058L50.2724 41.877C50.3844 41.9889 50.5661 41.9889 50.6782 41.877L51.4508 41.1058C51.5629 40.994 51.5629 40.8127 51.4508 40.7008L50.6782 39.9296C50.5661 39.8178 50.3844 39.8178 50.2724 39.9296Z" fill="#071897"/>
<path d="M59.5536 30.6533L58.781 31.4244C58.669 31.5363 58.669 31.7176 58.781 31.8295L59.5536 32.6007C59.6657 32.7125 59.8474 32.7125 59.9594 32.6007L60.7321 31.8295C60.8441 31.7176 60.8441 31.5363 60.7321 31.4244L59.9594 30.6533C59.8474 30.5414 59.6657 30.5414 59.5536 30.6533Z" fill="#A5ACB0"/>
<path d="M60.8818 29.3398L60.1091 30.111C59.9971 30.2228 59.9971 30.4041 60.1091 30.516L60.8818 31.2872C60.9938 31.399 61.1755 31.399 61.2875 31.2872L62.0602 30.516C62.1722 30.4041 62.1722 30.2228 62.0602 30.111L61.2875 29.3398C61.1755 29.2279 60.9938 29.2279 60.8818 29.3398Z" fill="#A5ACB0"/>
<path d="M62.2079 27.9999L61.4353 28.7711C61.3233 28.883 61.3233 29.0643 61.4353 29.1761L62.2079 29.9473C62.32 30.0592 62.5017 30.0592 62.6137 29.9473L63.3864 29.1761C63.4984 29.0643 63.4984 28.883 63.3864 28.7711L62.6137 27.9999C62.5017 27.8881 62.32 27.8881 62.2079 27.9999Z" fill="#A5ACB0"/>
<path d="M63.5302 26.6786L62.7576 27.4498C62.6455 27.5617 62.6455 27.743 62.7576 27.8549L63.5302 28.626C63.6423 28.7379 63.8239 28.7379 63.936 28.626L64.7086 27.8549C64.8207 27.743 64.8207 27.5617 64.7086 27.4498L63.936 26.6786C63.8239 26.5668 63.6423 26.5668 63.5302 26.6786Z" fill="#A5ACB0"/>
<path d="M43.6376 49.1835L42.865 49.9547C42.7529 50.0666 42.7529 50.2479 42.865 50.3597L43.6376 51.1309C43.7497 51.2428 43.9314 51.2428 44.0434 51.1309L44.816 50.3597C44.9281 50.2479 44.9281 50.0666 44.816 49.9547L44.0434 49.1835C43.9314 49.0717 43.7497 49.0717 43.6376 49.1835Z" fill="#071897"/>
<path d="M44.9658 47.8779L44.1931 48.6491C44.0811 48.7609 44.0811 48.9422 44.1931 49.0541L44.9658 49.8253C45.0778 49.9371 45.2595 49.9371 45.3715 49.8253L46.1442 49.0541C46.2562 48.9422 46.2562 48.7609 46.1442 48.6491L45.3715 47.8779C45.2595 47.766 45.0778 47.766 44.9658 47.8779Z" fill="#071897"/>
<path d="M46.2841 46.5439L45.5115 47.3151C45.3994 47.4269 45.3994 47.6082 45.5115 47.7201L46.2841 48.4913C46.3962 48.6031 46.5778 48.6031 46.6899 48.4913L47.4625 47.7201C47.5746 47.6082 47.5746 47.4269 47.4625 47.3151L46.6899 46.5439C46.5778 46.432 46.3962 46.432 46.2841 46.5439Z" fill="#071897"/>
<path d="M47.6122 45.2304L46.8396 46.0016C46.7276 46.1134 46.7276 46.2948 46.8396 46.4066L47.6122 47.1778C47.7243 47.2896 47.906 47.2896 48.018 47.1778L48.7906 46.4066C48.9027 46.2948 48.9027 46.1134 48.7907 46.0016L48.018 45.2304C47.906 45.1186 47.7243 45.1186 47.6122 45.2304Z" fill="#071897"/>
<path d="M48.9443 43.8964L48.1716 44.6676C48.0596 44.7795 48.0596 44.9608 48.1716 45.0726L48.9443 45.8438C49.0563 45.9557 49.238 45.9557 49.35 45.8438L50.1227 45.0726C50.2347 44.9608 50.2347 44.7795 50.1227 44.6676L49.35 43.8964C49.238 43.7846 49.0563 43.7846 48.9443 43.8964Z" fill="#071897"/>
<path d="M50.2724 42.58L49.4998 43.3512C49.3877 43.463 49.3877 43.6444 49.4998 43.7562L50.2724 44.5274C50.3844 44.6393 50.5661 44.6393 50.6782 44.5274L51.4508 43.7562C51.5629 43.6444 51.5629 43.463 51.4508 43.3512L50.6782 42.58C50.5661 42.4682 50.3844 42.4682 50.2724 42.58Z" fill="#071897"/>
<path d="M51.6005 41.246L50.8279 42.0172C50.7158 42.1291 50.7158 42.3104 50.8279 42.4222L51.6005 43.1934C51.7126 43.3053 51.8942 43.3053 52.0063 43.1934L52.7789 42.4222C52.891 42.3104 52.891 42.1291 52.7789 42.0172L52.0063 41.246C51.8942 41.1342 51.7126 41.1342 51.6005 41.246Z" fill="#071897"/>
<path d="M52.9208 39.9296L52.1482 40.7008C52.0361 40.8127 52.0361 40.994 52.1482 41.1058L52.9208 41.877C53.0329 41.9889 53.2146 41.9889 53.3266 41.877L54.0992 41.1058C54.2113 40.994 54.2113 40.8127 54.0992 40.7008L53.3266 39.9296C53.2146 39.8178 53.0329 39.8178 52.9208 39.9296Z" fill="#071897"/>
<path d="M58.2333 34.6318L57.4607 35.403C57.3486 35.5148 57.3486 35.6961 57.4607 35.808L58.2333 36.5792C58.3454 36.691 58.5271 36.691 58.6391 36.5792L59.4117 35.808C59.5238 35.6961 59.5238 35.5148 59.4117 35.403L58.6391 34.6318C58.5271 34.5199 58.3454 34.5199 58.2333 34.6318Z" fill="#A5ACB0"/>
<path d="M59.5536 33.3027L58.781 34.0739C58.669 34.1857 58.669 34.367 58.781 34.4789L59.5536 35.2501C59.6657 35.3619 59.8474 35.3619 59.9594 35.2501L60.7321 34.4789C60.8441 34.367 60.8441 34.1857 60.7321 34.0739L59.9594 33.3027C59.8474 33.1908 59.6657 33.1908 59.5536 33.3027Z" fill="#A5ACB0"/>
<path d="M63.5361 29.3398L62.7634 30.111C62.6514 30.2228 62.6514 30.4041 62.7634 30.516L63.5361 31.2872C63.6481 31.399 63.8298 31.399 63.9418 31.2872L64.7145 30.516C64.8265 30.4041 64.8265 30.2228 64.7145 30.111L63.9418 29.3398C63.8298 29.2279 63.6481 29.2279 63.5361 29.3398Z" fill="#A5ACB0"/>
<path d="M64.8583 27.9999L64.0857 28.7711C63.9736 28.883 63.9736 29.0643 64.0857 29.1761L64.8583 29.9473C64.9704 30.0592 65.1521 30.0592 65.2641 29.9473L66.0367 29.1761C66.1488 29.0643 66.1488 28.883 66.0367 28.7711L65.2641 27.9999C65.1521 27.8881 64.9704 27.8881 64.8583 27.9999Z" fill="#A5ACB0"/>
<path d="M44.9658 50.5283L44.1931 51.2994C44.0811 51.4113 44.0811 51.5926 44.1931 51.7045L44.9658 52.4757C45.0778 52.5875 45.2595 52.5875 45.3715 52.4757L46.1442 51.7045C46.2562 51.5926 46.2562 51.4113 46.1442 51.2994L45.3715 50.5282C45.2595 50.4164 45.0778 50.4164 44.9658 50.5283Z" fill="#071897"/>
<path d="M46.2841 49.1835L45.5115 49.9547C45.3994 50.0666 45.3994 50.2479 45.5115 50.3597L46.2841 51.1309C46.3962 51.2428 46.5778 51.2428 46.6899 51.1309L47.4625 50.3597C47.5746 50.2479 47.5746 50.0666 47.4625 49.9547L46.6899 49.1835C46.5778 49.0717 46.3962 49.0717 46.2841 49.1835Z" fill="#071897"/>
<path d="M47.622 47.87L46.8494 48.6412C46.7373 48.7531 46.7373 48.9344 46.8494 49.0463L47.622 49.8175C47.7341 49.9293 47.9157 49.9293 48.0278 49.8175L48.8004 49.0463C48.9125 48.9344 48.9125 48.7531 48.8004 48.6412L48.0278 47.87C47.9157 47.7582 47.7341 47.7582 47.622 47.87Z" fill="#071897"/>
<path d="M48.9345 46.5439L48.1619 47.3151C48.0498 47.4269 48.0498 47.6082 48.1619 47.7201L48.9345 48.4913C49.0466 48.6031 49.2282 48.6031 49.3403 48.4913L50.1129 47.7201C50.225 47.6082 50.225 47.4269 50.1129 47.3151L49.3403 46.5439C49.2282 46.432 49.0466 46.432 48.9345 46.5439Z" fill="#071897"/>
<path d="M50.2724 45.2304L49.4998 46.0016C49.3877 46.1134 49.3877 46.2948 49.4998 46.4066L50.2724 47.1778C50.3844 47.2896 50.5661 47.2896 50.6782 47.1778L51.4508 46.4066C51.5629 46.2948 51.5629 46.1134 51.4508 46.0016L50.6782 45.2304C50.5661 45.1186 50.3844 45.1186 50.2724 45.2304Z" fill="#071897"/>
<path d="M51.5927 43.8964L50.8201 44.6676C50.708 44.7795 50.708 44.9608 50.8201 45.0726L51.5927 45.8438C51.7048 45.9557 51.8864 45.9557 51.9985 45.8438L52.7711 45.0726C52.8832 44.9608 52.8832 44.7795 52.7711 44.6676L51.9985 43.8964C51.8864 43.7846 51.7048 43.7846 51.5927 43.8964Z" fill="#071897"/>
<path d="M52.9208 42.5702L52.1482 43.3414C52.0361 43.4533 52.0361 43.6346 52.1482 43.7465L52.9208 44.5176C53.0329 44.6295 53.2146 44.6295 53.3266 44.5176L54.0992 43.7465C54.2113 43.6346 54.2113 43.4533 54.0992 43.3414L53.3266 42.5702C53.2146 42.4584 53.0329 42.4584 52.9208 42.5702Z" fill="#071897"/>
<path d="M54.247 41.246L53.4744 42.0172C53.3623 42.1291 53.3623 42.3104 53.4744 42.4222L54.247 43.1934C54.3591 43.3053 54.5407 43.3053 54.6528 43.1934L55.4254 42.4222C55.5375 42.3104 55.5375 42.1291 55.4254 42.0172L54.6528 41.246C54.5407 41.1342 54.3591 41.1342 54.247 41.246Z" fill="#071897"/>
<path d="M55.5654 39.9296L54.7927 40.7008C54.6807 40.8127 54.6807 40.994 54.7927 41.1058L55.5654 41.877C55.6774 41.9889 55.8591 41.9889 55.9711 41.877L56.7438 41.1058C56.8558 40.994 56.8558 40.8127 56.7438 40.7008L55.9711 39.9296C55.8591 39.8178 55.6774 39.8178 55.5654 39.9296Z" fill="#071897"/>
<path d="M66.1904 29.3398L65.4177 30.111C65.3057 30.2228 65.3057 30.4041 65.4177 30.516L66.1904 31.2872C66.3024 31.399 66.4841 31.399 66.5961 31.2872L67.3688 30.516C67.4808 30.4041 67.4808 30.2228 67.3688 30.111L66.5961 29.3398C66.4841 29.2279 66.3024 29.2279 66.1904 29.3398Z" fill="#A5ACB0"/>
<path d="M46.2841 51.8525L45.5115 52.6237C45.3994 52.7355 45.3994 52.9168 45.5115 53.0287L46.2841 53.7999C46.3962 53.9117 46.5778 53.9117 46.6899 53.7999L47.4625 53.0287C47.5746 52.9168 47.5746 52.7355 47.4625 52.6237L46.6899 51.8525C46.5778 51.7406 46.3962 51.7406 46.2841 51.8525Z" fill="#071897"/>
<path d="M47.6122 50.5283L46.8396 51.2994C46.7276 51.4113 46.7276 51.5926 46.8396 51.7045L47.6122 52.4757C47.7243 52.5875 47.906 52.5875 48.018 52.4757L48.7906 51.7045C48.9027 51.5926 48.9027 51.4113 48.7906 51.2994L48.018 50.5282C47.906 50.4164 47.7243 50.4164 47.6122 50.5283Z" fill="#071897"/>
<path d="M48.9345 49.1943L48.1619 49.9655C48.0498 50.0773 48.0498 50.2586 48.1619 50.3705L48.9345 51.1417C49.0466 51.2535 49.2282 51.2535 49.3403 51.1417L50.1129 50.3705C50.225 50.2586 50.225 50.0773 50.1129 49.9655L49.3403 49.1943C49.2282 49.0824 49.0466 49.0824 48.9345 49.1943Z" fill="#071897"/>
<path d="M50.2724 47.87L49.4998 48.6412C49.3877 48.7531 49.3877 48.9344 49.4998 49.0463L50.2724 49.8175C50.3844 49.9293 50.5661 49.9293 50.6782 49.8175L51.4508 49.0463C51.5629 48.9344 51.5629 48.7531 51.4508 48.6412L50.6782 47.87C50.5661 47.7582 50.3844 47.7582 50.2724 47.87Z" fill="#071897"/>
<path d="M51.6005 46.5439L50.8279 47.3151C50.7158 47.4269 50.7158 47.6082 50.8279 47.7201L51.6005 48.4913C51.7126 48.6031 51.8942 48.6031 52.0063 48.4913L52.7789 47.7201C52.891 47.6082 52.891 47.4269 52.7789 47.3151L52.0063 46.5439C51.8942 46.432 51.7126 46.432 51.6005 46.5439Z" fill="#071897"/>
<path d="M52.9208 45.2304L52.1482 46.0016C52.0361 46.1134 52.0361 46.2948 52.1482 46.4066L52.9208 47.1778C53.0329 47.2896 53.2146 47.2896 53.3266 47.1778L54.0992 46.4066C54.2113 46.2948 54.2113 46.1134 54.0992 46.0016L53.3266 45.2304C53.2146 45.1186 53.0329 45.1186 52.9208 45.2304Z" fill="#071897"/>
<path d="M54.247 43.8964L53.4744 44.6676C53.3623 44.7795 53.3623 44.9608 53.4744 45.0726L54.247 45.8438C54.3591 45.9557 54.5407 45.9557 54.6528 45.8438L55.4254 45.0726C55.5375 44.9608 55.5375 44.7795 55.4254 44.6676L54.6528 43.8964C54.5407 43.7846 54.3591 43.7846 54.247 43.8964Z" fill="#071897"/>
<path d="M55.5771 42.58L54.8044 43.3512C54.6924 43.463 54.6924 43.6444 54.8044 43.7562L55.5771 44.5274C55.6891 44.6393 55.8708 44.6393 55.9829 44.5274L56.7555 43.7562C56.8675 43.6444 56.8675 43.463 56.7555 43.3512L55.9829 42.58C55.8708 42.4682 55.6891 42.4682 55.5771 42.58Z" fill="#071897"/>
<path d="M56.8954 41.246L56.1228 42.0172C56.0108 42.1291 56.0108 42.3104 56.1228 42.4222L56.8954 43.1934C57.0075 43.3053 57.1892 43.3053 57.3012 43.1934L58.0739 42.4222C58.1859 42.3104 58.1859 42.1291 58.0739 42.0172L57.3012 41.246C57.1892 41.1342 57.0075 41.1342 56.8954 41.246Z" fill="#071897"/>
<path d="M58.2275 39.9296L57.4548 40.7008C57.3428 40.8127 57.3428 40.994 57.4548 41.1058L58.2275 41.877C58.3395 41.9889 58.5212 41.9889 58.6332 41.877L59.4059 41.1058C59.5179 40.994 59.5179 40.8127 59.4059 40.7008L58.6332 39.9296C58.5212 39.8178 58.3395 39.8178 58.2275 39.9296Z" fill="#071897"/>
<path d="M59.5536 38.5956L58.781 39.3668C58.669 39.4787 58.669 39.66 58.781 39.7718L59.5536 40.543C59.6657 40.6549 59.8474 40.6549 59.9594 40.543L60.7321 39.7718C60.8441 39.66 60.8441 39.4787 60.7321 39.3668L59.9594 38.5956C59.8474 38.4838 59.6657 38.4838 59.5536 38.5956Z" fill="#A5ACB0"/>
<path d="M60.8818 37.2822L60.1091 38.0534C59.9971 38.1652 59.9971 38.3465 60.1091 38.4584L60.8818 39.2296C60.9938 39.3414 61.1755 39.3414 61.2875 39.2296L62.0602 38.4584C62.1722 38.3465 62.1722 38.1652 62.0602 38.0534L61.2875 37.2822C61.1755 37.1703 60.9938 37.1703 60.8818 37.2822Z" fill="#A5ACB0"/>
<path d="M62.2079 35.9482L61.4353 36.7194C61.3233 36.8312 61.3233 37.0125 61.4353 37.1244L62.2079 37.8956C62.32 38.0074 62.5017 38.0074 62.6137 37.8956L63.3864 37.1244C63.4984 37.0125 63.4984 36.8312 63.3864 36.7194L62.6137 35.9482C62.5017 35.8363 62.32 35.8363 62.2079 35.9482Z" fill="#A5ACB0"/>
<path d="M63.5302 34.6318L62.7576 35.403C62.6455 35.5148 62.6455 35.6961 62.7576 35.808L63.5302 36.5792C63.6423 36.691 63.8239 36.691 63.936 36.5792L64.7086 35.808C64.8207 35.6961 64.8207 35.5148 64.7086 35.403L63.936 34.6318C63.8239 34.5199 63.6423 34.5199 63.5302 34.6318Z" fill="#A5ACB0"/>
<path d="M64.8681 33.2978L64.0955 34.069C63.9834 34.1808 63.9834 34.3621 64.0955 34.474L64.8681 35.2452C64.9802 35.357 65.1618 35.357 65.2739 35.2452L66.0465 34.474C66.1586 34.3621 66.1586 34.1808 66.0465 34.069L65.2739 33.2978C65.1618 33.1859 64.9802 33.1859 64.8681 33.2978Z" fill="#A5ACB0"/>
<path d="M66.1904 31.9794L65.4177 32.7506C65.3057 32.8625 65.3057 33.0438 65.4177 33.1556L66.1904 33.9268C66.3024 34.0387 66.4841 34.0387 66.5961 33.9268L67.3688 33.1556C67.4808 33.0438 67.4808 32.8625 67.3688 32.7506L66.5961 31.9794C66.4841 31.8676 66.3024 31.8676 66.1904 31.9794Z" fill="#A5ACB0"/>
<path d="M67.5146 30.6533L66.7419 31.4244C66.6299 31.5363 66.6299 31.7176 66.7419 31.8295L67.5146 32.6007C67.6266 32.7125 67.8083 32.7125 67.9204 32.6007L68.693 31.8295C68.805 31.7176 68.805 31.5363 68.693 31.4244L67.9204 30.6533C67.8083 30.5414 67.6266 30.5414 67.5146 30.6533Z" fill="#A5ACB0"/>
<path d="M23.2052 75.7023C23.0503 75.7023 22.9299 75.6722 22.8439 75.612C22.7664 75.5603 22.7148 75.4829 22.689 75.3797C22.6632 75.2679 22.6503 75.1474 22.6503 75.0184V67.3539C22.6503 67.2249 22.6632 67.113 22.689 67.0184C22.7234 66.9152 22.7793 66.8378 22.8568 66.7861C22.9428 66.7259 23.0632 66.6958 23.2181 66.6958H26.8181C27.2998 66.6958 27.7213 66.8033 28.0826 67.0184C28.4525 67.2335 28.7406 67.5259 28.9471 67.8958C29.1535 68.2657 29.2525 68.67 29.2439 69.1087C29.2525 69.3324 29.2267 69.5517 29.1664 69.7668C29.1062 69.9818 29.0159 70.184 28.8955 70.3732C28.7836 70.5539 28.6417 70.7044 28.4697 70.8249C28.7019 70.9711 28.8998 71.1603 29.0632 71.3926C29.2267 71.6249 29.3514 71.8829 29.4374 72.1668C29.5234 72.4507 29.5664 72.7474 29.5664 73.0571C29.5578 73.427 29.489 73.7754 29.36 74.1023C29.231 74.4206 29.046 74.7001 28.8052 74.941C28.5643 75.1818 28.2847 75.3711 27.9664 75.5087C27.6482 75.6378 27.3084 75.7023 26.9471 75.7023H23.2052ZM23.8116 74.5926H26.8181C27.1535 74.5926 27.4417 74.5281 27.6826 74.399C27.9234 74.27 28.1084 74.0808 28.2374 73.8313C28.3664 73.5818 28.431 73.2765 28.431 72.9152C28.431 72.6055 28.3879 72.356 28.3019 72.1668C28.2159 71.9775 28.0998 71.8356 27.9535 71.741C27.8073 71.6378 27.6482 71.5646 27.4761 71.5216C27.3127 71.4786 27.1492 71.4571 26.9858 71.4571C26.831 71.4485 26.689 71.4442 26.56 71.4442H25.7729C25.6009 71.4442 25.4761 71.4012 25.3987 71.3152C25.3213 71.2292 25.2826 71.0915 25.2826 70.9023C25.2826 70.7216 25.3213 70.5926 25.3987 70.5152C25.4847 70.4378 25.6138 70.399 25.7858 70.399H26.5729C26.7105 70.399 26.8654 70.3947 27.0374 70.3861C27.2095 70.3775 27.3772 70.3431 27.5406 70.2829C27.7127 70.2227 27.8503 70.1109 27.9535 69.9474C28.0654 69.7754 28.1213 69.5345 28.1213 69.2249C28.1213 68.7431 27.9923 68.3904 27.7342 68.1668C27.4761 67.9345 27.0503 67.8184 26.4568 67.8184H23.8116V74.5926ZM34.4657 75.7023C34.2937 75.7023 34.1647 75.6765 34.0786 75.6249C34.0012 75.5818 33.9496 75.5173 33.9238 75.4313C33.898 75.3453 33.8851 75.2421 33.8851 75.1216V67.2636C33.8851 67.1517 33.898 67.0528 33.9238 66.9668C33.9582 66.8722 34.0141 66.8033 34.0915 66.7603C34.1776 66.7173 34.3066 66.6958 34.4786 66.6958C34.6507 66.6958 34.7754 66.7216 34.8528 66.7732C34.9389 66.8163 34.9948 66.8808 35.0206 66.9668C35.0464 67.0528 35.0593 67.156 35.0593 67.2765V70.399L38.8657 66.8765C38.969 66.7732 39.0636 66.7044 39.1496 66.67C39.2356 66.6356 39.3217 66.6356 39.4077 66.67C39.4937 66.7044 39.5883 66.7732 39.6915 66.8765C39.855 67.0399 39.9324 67.1818 39.9238 67.3023C39.9238 67.4141 39.8464 67.5431 39.6915 67.6894L35.8464 71.1861L39.7432 74.7087C39.9066 74.8636 39.9883 75.0012 39.9883 75.1216C39.9883 75.2421 39.9066 75.3797 39.7432 75.5345C39.6313 75.6378 39.5324 75.7066 39.4464 75.741C39.3604 75.7754 39.2743 75.7754 39.1883 75.741C39.1109 75.7066 39.0206 75.6335 38.9174 75.5216L35.0593 71.9732V75.1345C35.0593 75.255 35.0464 75.3582 35.0206 75.4442C34.9948 75.5302 34.9389 75.5947 34.8528 75.6378C34.7668 75.6808 34.6378 75.7023 34.4657 75.7023ZM58.284 74.8765C58.3528 75.0055 58.3872 75.1173 58.3872 75.212C58.3958 75.298 58.37 75.3797 58.3098 75.4571C58.2496 75.5259 58.1549 75.5904 58.0259 75.6507C57.8195 75.7453 57.656 75.7668 57.5356 75.7152C57.4238 75.6636 57.3205 75.5388 57.2259 75.341L54.0001 68.4765L50.8001 75.3281C50.7055 75.5259 50.598 75.6507 50.4775 75.7023C50.3657 75.7539 50.2023 75.7324 49.9872 75.6378C49.8582 75.5861 49.7636 75.5216 49.7033 75.4442C49.6517 75.3668 49.6302 75.2722 49.6388 75.1603C49.656 75.0485 49.699 74.9195 49.7679 74.7732L53.4711 67.0442C53.5227 66.941 53.5958 66.8593 53.6904 66.799C53.7937 66.7302 53.9012 66.6958 54.013 66.6958C54.0904 66.6958 54.1636 66.7087 54.2324 66.7345C54.3012 66.7603 54.3614 66.799 54.413 66.8507C54.4646 66.9023 54.5076 66.9711 54.542 67.0571L58.284 74.8765ZM51.5743 73.1345L52.013 72.141H56.013L56.4388 73.1345H51.5743ZM62.7885 75.7023C62.6165 75.7023 62.4874 75.6765 62.4014 75.6249C62.324 75.5818 62.2724 75.5173 62.2466 75.4313C62.2208 75.3367 62.2079 75.2292 62.2079 75.1087V67.2765C62.2079 67.156 62.2208 67.0528 62.2466 66.9668C62.281 66.8808 62.3369 66.8163 62.4143 66.7732C62.5003 66.7216 62.6294 66.6958 62.8014 66.6958C62.9735 66.6958 63.0982 66.7216 63.1756 66.7732C63.2616 66.8163 63.3132 66.8808 63.3305 66.9668C63.3563 67.0528 63.3692 67.1603 63.3692 67.2894V75.1216C63.3692 75.2421 63.3563 75.3453 63.3305 75.4313C63.3046 75.5173 63.2487 75.5818 63.1627 75.6249C63.0853 75.6765 62.9606 75.7023 62.7885 75.7023Z" fill="#404040"/>
</svg>
