<svg width="1372" height="254" viewBox="0 0 1372 254" fill="none" xmlns="http://www.w3.org/2000/svg">
<path d="M723.92 12.7578L763.899 25.2656L810.874 39.9609L862.056 55.9727L929.33 77.0195L1040.09 111.669L1040.1 111.673L1152.1 145.318L1287.48 185.989L1346.59 203.748C1361.02 208.082 1370.9 221.362 1370.9 236.426V647.201H1.10059V236.43C1.10059 221.365 10.9806 208.083 25.4092 203.75L79.5654 187.488L219.353 145.515L219.36 145.512L441.147 77.0205L509.301 55.9746L561.15 39.9619L608.737 25.2666L647.943 13.1592L686.822 1.15234L723.92 12.7578Z" stroke="url(#paint0_linear_1599_40139)" stroke-width="2.20136"/>
<defs>
<linearGradient id="paint0_linear_1599_40139" x1="686" y1="-3.47103e-08" x2="685.725" y2="556.945" gradientUnits="userSpaceOnUse">
<stop offset="0.119792" stop-color="#232323" stop-opacity="0.03"/>
<stop offset="0.276042" stop-color="#232323" stop-opacity="0.13"/>
<stop offset="0.552083" stop-color="#232323" stop-opacity="0.06"/>
<stop offset="0.770833" stop-color="#232323" stop-opacity="0.05"/>
</linearGradient>
</defs>
</svg>
